<svg width="14" height="14" fill="none" xmlns="http://www.w3.org/2000/svg"><path d="M7.75 14c-3.383 0-6.125-3.134-6.125-7S4.367 0 7.75 0s6.125 3.134 6.125 7-2.742 7-6.125 7z" fill="#FFD949"/><path d="M1.625 7C1.625 3.425 3.971.477 7 .054A5.432 5.432 0 006.25 0C2.867 0 .125 3.134.125 7s2.742 7 6.125 7c.254 0 .504-.02.75-.054-3.029-.423-5.375-3.37-5.375-6.946z" fill="#F4BF1A"/><path d="M7.771 12.631H7.75c-.175 0-.351-.01-.524-.03a.25.25 0 01.06-.497c.152.018.309.027.464.027.138 0 .26.112.26.25s-.1.25-.239.25zm1.454-.27a.25.25 0 01-.088-.483c.144-.054.287-.118.426-.19a.25.25 0 11.228.445c-.155.08-.316.151-.478.213a.246.246 0 01-.088.016zm-3.384-.19a.248.248 0 01-.113-.027 4.756 4.756 0 01-.452-.262.25.25 0 11.274-.419c.13.086.267.165.405.235a.25.25 0 01-.114.473zm5.028-.89a.25.25 0 01-.178-.426c.109-.11.215-.227.314-.35a.25.25 0 01.388.315c-.11.136-.227.266-.347.387a.25.25 0 01-.177.074zm-6.555-.352a.25.25 0 01-.193-.09 5.568 5.568 0 01-.31-.417.25.25 0 01.415-.28c.088.131.183.259.282.379a.25.25 0 01-.194.408zm7.654-1.284a.25.25 0 01-.23-.35c.063-.143.12-.292.17-.442a.25.25 0 01.475.16 6.045 6.045 0 01-.186.482.25.25 0 01-.23.15zM3.36 9.203a.25.25 0 01-.237-.17 6.098 6.098 0 01-.145-.495.25.25 0 11.485-.12c.038.153.083.306.134.454a.25.25 0 01-.237.331zm9.08-1.473h-.02a.25.25 0 01-.23-.27c.012-.15.018-.306.018-.459 0-.138.112-.258.25-.258s.25.104.25.242V7c0 .166-.006.334-.019.498a.25.25 0 01-.249.231zm-9.398-.476a.248.248 0 01-.25-.247V7c0-.17.006-.342.02-.51a.25.25 0 01.498.04 5.968 5.968 0 00-.018.47.252.252 0 01-.25.253zm9.233-1.49a.25.25 0 01-.242-.19 5.66 5.66 0 00-.134-.455.25.25 0 01.473-.162c.055.162.104.328.146.495a.25.25 0 01-.243.311zm-8.917-.455a.25.25 0 01-.237-.33 6.02 6.02 0 01.187-.483.25.25 0 01.458.2c-.063.145-.12.294-.171.443a.25.25 0 01-.237.17zm8.117-1.348a.25.25 0 01-.207-.11 5.106 5.106 0 00-.282-.378.25.25 0 01.386-.318c.108.132.213.272.31.415a.25.25 0 01-.207.39zm-7.168-.38a.25.25 0 01-.193-.408c.11-.136.227-.266.348-.387a.25.25 0 01.354.352c-.109.11-.215.228-.315.35a.248.248 0 01-.194.092zm5.77-1.008a.247.247 0 01-.136-.04 4.254 4.254 0 00-.405-.234.25.25 0 01.226-.446c.154.077.306.165.452.26a.25.25 0 01-.136.46zm-4.245-.238a.25.25 0 01-.114-.472c.156-.08.317-.15.48-.211a.25.25 0 11.174.468 4.091 4.091 0 00-.427.188.247.247 0 01-.113.027zm2.402-.437c-.01 0-.02 0-.03-.002a3.952 3.952 0 00-.454-.026.255.255 0 01-.255-.25c0-.138.106-.25.244-.25h.01c.171 0 .344.01.513.03a.25.25 0 01-.028.498z" fill="#F4BF1A"/><path d="M1.625 7.25h-1.5c.005.168.015.335.03.5h1.5a8.021 8.021 0 01-.03-.5zM1.682 6h-1.5a7.8 7.8 0 00-.045.5h1.5c.01-.168.024-.335.045-.5zm.08 2.5h-1.5c.032.169.07.336.112.5h1.5a8.109 8.109 0 01-.112-.5zm.35 1.25H.61c.063.17.134.337.209.5h1.5a7.428 7.428 0 01-.208-.5zm-.169-5H.445a7.6 7.6 0 00-.133.5h1.502c.038-.17.08-.337.129-.5zm.498-1.25h-1.5c-.083.163-.16.33-.231.5h1.5c.072-.17.148-.337.231-.5zM3.461 2H1.96a6.686 6.686 0 00-.405.5h1.501c.128-.174.264-.341.406-.5zM4.99.75H3.487c-.256.147-.5.315-.734.5h1.502c.234-.185.48-.353.735-.5zm-2.11 10.5H1.379c.116.173.238.34.368.5h1.502a6.94 6.94 0 01-.37-.5zm-.422 1.25c.2.18.411.348.631.5h1.504a6.144 6.144 0 01-.635-.5h-1.5z" fill="#DCA815"/></svg>