<?xml version="1.0" standalone="no"?>
<!DOCTYPE svg PUBLIC "-//W3C//DTD SVG 1.1//EN" "http://www.w3.org/Graphics/SVG/1.1/DTD/svg11.dtd" >
<svg xmlns="http://www.w3.org/2000/svg">
<metadata>Generated by IcoMoon</metadata>
<defs>
<font id="gambling" horiz-adv-x="1024">
<font-face units-per-em="1024" ascent="960" descent="-64" />
<missing-glyph horiz-adv-x="1024" />
<glyph unicode="&#x20;" horiz-adv-x="512" d="" />
<glyph unicode="&#xe900;" glyph-name="star-half" d="M511.999 938.574c-21.802 0-41.378-12.904-49.994-32.996l-116.985-273.565-295.562-26.797c-21.716-2.008-40.053-16.663-46.794-37.395s-0.43-43.458 15.998-57.793l223.372-195.975-65.792-290.163c-4.82-21.333 3.297-43.198 20.997-55.993 9.515-6.874 20.77-10.399 31.996-10.399 9.679 0 19.181 2.443 27.796 7.599l254.968 152.381 254.768-152.381c18.647-11.218 42.131-10.004 59.792 2.8 17.709 12.835 26.017 34.707 21.197 55.993l-65.792 290.163 223.372 195.975c16.428 14.373 22.742 37.021 15.998 57.793-6.702 20.732-25.239 35.434-46.994 37.395l-295.362 26.797-116.985 273.565c-8.616 20.044-28.191 32.996-49.994 32.996zM511.999 887.38c1.245 0 2.424-0.68 3-2l128.784-301.562 325.959-29.596c1.29-0.117 2.402-0.969 2.8-2.2 0.414-1.276 0.030-2.699-1-3.6l-246.369-215.973 72.791-319.759c0.308-1.361-0.323-2.62-1.4-3.4-1.086-0.788-2.4-0.802-3.4-0.2l-281.164 168.179v710.11c0-710.11 0-710.11 0 0 0.588 1.351-1.227 0 0 0z" />
<glyph unicode="&#xe901;" glyph-name="star-empty" d="M511.999 938.574c-21.802 0-41.378-12.904-49.994-32.996l-116.985-273.565-295.562-26.797c-21.716-2.008-40.053-16.663-46.794-37.395s-0.43-43.458 15.998-57.793l223.372-195.975-65.792-290.163c-4.82-21.333 3.297-43.198 20.997-55.993 9.515-6.874 20.77-10.399 31.996-10.399 9.679 0 19.181 2.443 27.796 7.599l254.968 152.381 254.768-152.381c18.647-11.218 42.131-10.004 59.792 2.8 17.709 12.835 26.017 34.707 21.197 55.993l-65.792 290.163 223.372 195.975c16.428 14.373 22.742 37.021 15.998 57.793-6.702 20.732-25.239 35.434-46.994 37.395l-295.362 26.797-116.985 273.565c-8.616 20.044-28.191 32.996-49.994 32.996zM511.999 887.38c1.245 0 2.423-0.68 3-2l128.784-301.562 325.959-29.596c1.29-0.117 2.402-0.969 2.8-2.2 0.414-1.276 0.030-2.699-1-3.6l-246.369-215.973 72.791-319.759c0.308-1.361-0.323-2.62-1.4-3.4-1.086-0.788-2.4-0.802-3.4-0.2l-281.164 168.179-281.164-168.179c-0.374-0.223-0.764-0.334-1-0.4s-0.37 0-0.6 0c-0.286 0-0.512-0.092-0.8 0-0.28 0.090-0.802 0.313-1.2 0.6-0.993 0.718-1.526 1.952-1.2 3.4l72.591 319.759-246.369 216.173c-0.895 0.781-1.23 2.078-0.8 3.4 0.424 1.305 1.473 2.072 2.8 2.2l325.959 29.596 128.784 301.562c0.588 1.351 1.773 2 3 2z" />
<glyph unicode="&#xe902;" glyph-name="star" d="M1021.327 567.83c-6.703 20.735-25.094 35.462-46.852 37.423l-295.554 26.837-116.87 273.545c-8.617 20.047-28.243 33.024-50.048 33.024s-41.431-12.977-50.048-33.071l-116.87-273.498-295.6-26.837c-21.719-2.008-40.064-16.688-46.806-37.423s-0.516-43.477 15.914-57.813l223.404-195.927-65.876-290.186c-4.821-21.337 3.461-43.392 21.164-56.189 9.516-6.875 20.649-10.375 31.876-10.375 9.68 0 19.282 2.609 27.899 7.765l254.943 152.371 254.849-152.371c18.649-11.219 42.158-10.195 59.822 2.61 17.711 12.836 25.985 34.899 21.165 56.189l-65.877 290.186 223.404 195.887c16.43 14.376 22.706 37.079 15.961 57.853z" />
<glyph unicode="&#xe903;" glyph-name="search" d="M416.982 960c-224.452 0-407.865-183.413-407.865-407.865s183.413-407.865 407.865-407.865c83.11 0 160.458 25.266 225.086 68.331l276.601-276.601 96.213 96.125-273.857 273.768c52.316 68.588 83.821 153.761 83.821 246.241 0 224.452-183.413 407.865-407.865 407.865zM416.982 824.046c150.977 0 271.909-120.933 271.909-271.909s-120.933-271.909-271.909-271.909c-150.977 0-271.909 120.933-271.909 271.909s120.933 271.909 271.909 271.909z" />
<glyph unicode="&#xe904;" glyph-name="hamburger" d="M0 827.871v-99.097h1024v99.097h-1024zM0 497.549v-99.097h726.709v99.097h-726.709zM0 167.226v-99.097h1024v99.097h-1024z" />
<glyph unicode="&#xe905;" glyph-name="clock" d="M512 960c-282.769 0-512-229.231-512-512s229.231-512 512-512c282.769 0 512 229.231 512 512-0.3 282.642-229.356 511.698-512 512zM512 886.8c242.374 0 438.8-196.425 438.8-438.8-0.261-242.267-196.533-438.539-438.8-438.8-242.375 0-438.8 196.426-438.8 438.8s196.425 438.8 438.8 438.8zM512 777.2c-20.198 0-36.6-16.402-36.6-36.6v-256h-256c-20.198 0-36.6-16.402-36.6-36.6s16.402-36.6 36.6-36.6h292.6c20.198 0 36.6 16.402 36.6 36.6v292.6c0 20.198-16.402 36.6-36.6 36.6z" />
<glyph unicode="&#xe906;" glyph-name="eye" d="M512 718.088c-275.424 0-495.277-239.873-504.352-250.071-10.197-11.414-10.197-28.628 0-40.042 9.168-10.197 229.021-250.071 504.352-250.071s495.277 239.873 504.352 250.071c10.197 11.414 10.197 28.628 0 40.042-9.168 10.197-229.021 250.071-504.352 250.071zM512 658.026c115.82 0 210.029-94.209 210.029-210.029s-94.209-210.029-210.029-210.029c-115.82 0-210.029 94.209-210.029 210.029s94.209 210.029 210.029 210.029zM512 598.059c-82.702 0-150.062-67.265-150.062-150.062s67.265-150.062 150.062-150.062c74.095 0 135.374 53.98 147.536 124.708-60.437-19.459-117.505 26.289-117.505 85.321 0 30.218 15.063 56.881 37.796 73.159-20.488 10.478-43.316 16.839-67.827 16.839z" />
<glyph unicode="&#xe907;" glyph-name="comment-2" d="M140.823 919.036c-77.618 0-140.808-63.16-140.808-140.808v-454.333c0-77.468 62.861-140.479 140.269-140.748v-206.183l296.313 206.183h446.61c77.618 0 140.808 63.13 140.808 140.748v454.333c0 77.648-63.16 140.808-140.808 140.808h-742.384zM140.823 859.019h742.384c44.541 0 80.791-36.25 80.791-80.791v-454.333c0-44.541-36.25-80.761-80.791-80.761h-465.438l-217.498-151.344v151.344h-59.478c-44.541 0-80.791 36.22-80.791 80.761v454.333c0 44.541 36.25 80.791 80.791 80.791zM274.117 707.016v-59.987h475.825v59.987h-475.825zM274.117 579.019v-59.987h475.825v59.987h-475.825zM274.117 451.023v-59.987h475.825v59.987h-475.825z" />
<glyph unicode="&#xe908;" glyph-name="plus" d="M572.22 960.001h-120.44v-451.781h-451.781v-120.44h451.781v-451.781h120.44v451.781h451.781v120.44h-451.781z" />
<glyph unicode="&#xe909;" glyph-name="instagram" d="M320.004 959.999c-176.694 0-320.003-143.28-320.003-320.003v-383.993c0-176.694 143.28-320.003 320.003-320.003h383.993c176.694 0 320.003 143.28 320.003 320.003v383.993c0 176.694-143.28 320.003-320.003 320.003h-383.993zM320.004 864.044h383.993c123.521 0 223.991-100.47 223.991-223.991v-383.993c0-123.521-100.47-223.991-223.991-223.991h-383.993c-123.521 0-223.991 100.47-223.991 223.991v383.993c0 123.521 100.47 223.991 223.991 223.991zM236.823 757.3c-18.822 0-34.096-15.245-34.096-34.096s15.245-34.181 34.096-34.181c18.822 0 34.181 15.358 34.181 34.181s-15.358 34.096-34.181 34.096zM512 704.042c-141.379 0-255.985-114.608-255.985-255.985s114.608-255.985 255.985-255.985c141.379 0 255.985 114.608 255.985 255.985s-114.608 255.985-255.985 255.985zM512 608.058c88.177 0 160.002-71.739 160.002-160.002 0-88.177-71.797-160.002-160.002-160.002s-160.002 71.797-160.002 160.002c0 88.263 71.797 160.002 160.002 160.002z" />
<glyph unicode="&#xe90a;" glyph-name="email" d="M36.562 790.928l475.412-367.33 480.757 366.368c-1.764 0.481-3.528 0.748-5.345 0.962h-950.877zM0 730.472v-591.138c0-18.922 16.357-34.263 36.562-34.263h950.877c20.205 0 36.562 15.341 36.562 34.263v586.006l-488.936-372.568c-13.47-10.37-32.82-10.37-46.29 0l-488.775 377.7z" />
<glyph unicode="&#xe90b;" glyph-name="plus-square" d="M873.999 928.166h-723.999c-82.71 0-150-63.106-150-140.674v-678.984c0-77.57 67.29-140.673 150-140.673h723.999c82.71 0 150.001 63.103 150.001 140.673v678.984c0 77.568-67.291 140.674-150.001 140.674zM832 419.863h-290.002v-271.97c0-15.536-13.429-28.131-29.998-28.131s-30 12.595-30 28.131v271.97h-290c-16.568 0-30 12.6-30 28.136 0 15.539 13.432 28.136 30 28.136h290v271.97c0 15.537 13.43 28.135 30 28.135s29.998-12.597 29.998-28.135v-271.97h290.002c16.569 0 29.998-12.597 29.998-28.136 0-15.536-13.429-28.136-29.998-28.136z" />
<glyph unicode="&#xe90c;" glyph-name="check" d="M994.005 645.617l-540.202-540.166c-40.003-40.010-104.893-40.010-144.933 0l-278.857 278.877c-40.018 40.010-40.018 104.909 0 144.927 40.026 40.026 104.912 40.026 144.919 0.015l206.426-206.429 467.707 467.709c40.023 40.026 104.919 39.995 144.923 0 40.013-40.018 40.013-104.893 0.017-144.933z" />
<glyph unicode="&#xe90d;" glyph-name="facebook" d="M42.688 959.685c-23.583 0-42.688-19.092-42.688-42.63v-938.11c0-23.538 19.104-42.631 42.688-42.631h501.312v383.764h-128v159.902h128v127.921c0 132.175 83.74 197.223 201.726 197.223 56.514 0 105.090-4.221 119.233-6.076v-138.155l-81.821-0.032c-64.161 0-79.135-30.477-79.135-75.186v-105.695h159.997l-31.997-159.902h-127.999l2.558-383.764h274.785c23.553 0 42.655 19.093 42.655 42.631v938.11c0 23.538-19.103 42.63-42.655 42.63h-938.656z" />
<glyph unicode="&#xe90e;" glyph-name="in" d="M872.608 87.686h-151.872v237.485c0 56.636-0.96 129.485-78.912 129.485-79.009 0-91.070-61.719-91.070-125.426v-241.544h-151.715v488.369h145.598v-66.775h2.081c20.258 38.409 69.794 78.896 143.681 78.896 153.794 0 182.209-101.122 182.209-232.66v-267.83zM227.808 642.768c-48.8 0-88.128 39.431-88.128 88.041 0 48.579 39.328 88.010 88.128 88.010 48.576 0 88.032-39.431 88.032-88.010 0-48.61-39.456-88.041-88.032-88.041zM303.774 87.666h-152.032v488.374h152.032v-488.374zM981.345 959.686h-938.658c-23.584 0-42.687-19.092-42.687-42.629v-938.082c0-23.566 19.105-42.66 42.687-42.66h938.658c23.552 0 42.655 19.094 42.655 42.66v938.082c0 23.538-19.104 42.629-42.655 42.629z" />
<glyph unicode="&#xe90f;" glyph-name="twitter" d="M1023.999 754.868c-37.665-16.14-78.179-27.055-120.673-31.971 43.39 25.138 76.705 64.901 92.385 112.301-40.579-23.252-85.569-40.134-133.408-49.255-38.335 39.454-92.928 64.097-153.346 64.097-116.032 0-210.078-90.874-210.078-202.99 0-15.893 1.853-31.384 5.441-46.256-174.625 8.473-329.409 89.297-433.025 212.112-18.080-29.993-28.448-64.87-28.448-102.068 0-70.405 37.088-132.554 93.439-168.947-34.432 1.051-66.815 10.173-95.136 25.385-0.031-0.866-0.031-1.701-0.031-2.566 0-98.356 72.416-180.387 168.544-199.034-17.632-4.637-36.192-7.11-55.36-7.11-13.536 0-26.688 1.267-39.52 3.618 26.72-80.641 104.32-139.328 196.256-140.966-71.904-54.451-162.496-86.887-260.928-86.887-16.96 0-33.664 0.961-50.112 2.814 92.96-57.572 203.391-91.183 322.048-91.183 386.433 0 597.728 309.325 597.728 577.557 0 8.813-0.196 17.563-0.609 26.282 41.054 28.601 76.671 64.344 104.832 105.066z" />
<glyph unicode="&#xe910;" glyph-name="comment" d="M752 898.001h-480c-149.98 0-272.001-121.12-272.001-270v-180c0-138.82 106.076-253.504 242-268.368v-151.634c0-12.134 7.308-23.074 18.52-27.716 11.208-4.642 24.113-2.074 32.694 6.502l171.212 171.216h287.574c149.982 0 272.001 121.122 272.001 270v180c0 148.88-122.018 270-272.001 270zM964.003 448.001c0-115.794-95.104-210-212.002-210h-300c-7.958 0-15.589-3.16-21.212-8.786l-128.788-128.786v107.571c0 16.568-13.431 30-30 30-116.896 0-212 94.206-212 210v180c0 115.795 95.104 210 212 210h480c116.898 0 212.002-94.205 212.002-210v-180z" />
<glyph unicode="&#xe911;" glyph-name="chevron-right" d="M328.36-64c-31.419 0-62.86 11.593-87.425 34.912-50.777 48.285-52.802 128.612-4.539 179.41l283.88 298.565-283.59 296.497c-48.441 50.621-46.661 130.948 3.983 179.41 50.666 48.463 130.971 46.661 179.41-3.983l367.255-383.899c46.816-48.952 46.906-126.052 0.289-175.159l-367.234-386.303c-24.988-26.189-58.431-39.451-92.031-39.451z" />
<glyph unicode="&#xe912;" glyph-name="chevron-down" d="M0 631.64c0 31.419 11.593 62.859 34.912 87.425 48.285 50.777 128.611 52.802 179.41 4.539l298.565-283.879 296.497 283.59c50.621 48.441 130.948 46.66 179.41-3.983 48.463-50.666 46.661-130.97-3.983-179.41l-383.898-367.255c-48.952-46.816-126.051-46.905-175.16-0.289l-386.302 367.231c-26.189 24.988-39.451 58.432-39.451 92.031z" />
<glyph unicode="&#xe913;" glyph-name="minus" d="M0 508.22h1024v-120.44h-1024v120.44z" />
<glyph unicode="&#xe914;" glyph-name="chevron-left" d="M695.64-64c31.419 0 62.86 11.593 87.425 34.912 50.777 48.285 52.802 128.612 4.539 179.41l-283.88 298.565 283.59 296.497c48.441 50.621 46.661 130.948-3.983 179.41-50.666 48.463-130.971 46.661-179.41-3.983l-367.255-383.899c-46.816-48.952-46.906-126.052-0.289-175.159l367.234-386.303c24.988-26.189 58.431-39.451 92.031-39.451z" />
<glyph unicode="&#xe915;" glyph-name="chevron-up" d="M0 264.36c0-31.419 11.593-62.859 34.912-87.425 48.285-50.777 128.611-52.802 179.41-4.539l298.565 283.879 296.497-283.59c50.621-48.441 130.948-46.66 179.41 3.983 48.463 50.666 46.661 130.97-3.983 179.41l-383.898 367.255c-48.952 46.816-126.051 46.905-175.16 0.289l-386.302-367.231c-26.189-24.988-39.451-58.432-39.451-92.031z" />
</font>
</defs>
</svg>
