<svg width="14" height="14" viewBox="0 0 14 14" fill="none" xmlns="http://www.w3.org/2000/svg">
<path d="M7.75 14C4.36725 14 1.625 10.866 1.625 7C1.625 3.134 4.36725 0 7.75 0C11.1327 0 13.875 3.134 13.875 7C13.875 10.866 11.1327 14 7.75 14Z" fill="#FFD949"/>
<path d="M1.625 7C1.625 3.4245 3.97125 0.477 7 0.054C6.754 0.01975 6.504 0 6.25 0C2.86725 0 0.125 3.134 0.125 7C0.125 10.866 2.86725 14 6.25 14C6.504 14 6.754 13.9803 7 13.946C3.97125 13.523 1.625 10.5755 1.625 7Z" fill="#F4BF1A"/>
<path d="M7.77125 12.6311H7.74975C7.57475 12.6311 7.3985 12.6206 7.226 12.6001C7.08875 12.5836 6.991 12.4594 7.00725 12.3221C7.02375 12.1849 7.149 12.0891 7.28525 12.1036C7.43825 12.1219 7.5945 12.1311 7.74975 12.1311C7.888 12.1311 8.0105 12.2431 8.0105 12.3811C8.0105 12.5191 7.90975 12.6311 7.77125 12.6311ZM9.22501 12.3619C9.124 12.3619 9.02875 12.3001 8.991 12.1999C8.94225 12.0706 9.0075 11.9264 9.13675 11.8779C9.28075 11.8236 9.4245 11.7599 9.56325 11.6886C9.68625 11.6251 9.83675 11.6739 9.9 11.7969C9.963 11.9196 9.9145 12.0704 9.7915 12.1334C9.63575 12.2134 9.475 12.2844 9.313 12.3456C9.28425 12.3566 9.25451 12.3619 9.22501 12.3619ZM5.84125 12.1709C5.80325 12.1709 5.7645 12.1621 5.72825 12.1436C5.5745 12.0654 5.42225 11.9776 5.276 11.8816C5.1605 11.8061 5.12825 11.6514 5.20375 11.5356C5.27975 11.4204 5.43425 11.3879 5.55 11.4634C5.68075 11.5491 5.817 11.6281 5.9545 11.6979C6.0775 11.7604 6.12675 11.9109 6.06425 12.0339C6.02025 12.1209 5.93225 12.1709 5.84125 12.1709ZM10.8688 11.2814C10.8053 11.2814 10.7415 11.2571 10.6928 11.2089C10.5948 11.1116 10.594 10.9534 10.6913 10.8554C10.8 10.7459 10.9058 10.6279 11.0055 10.5049C11.0928 10.3979 11.2503 10.3816 11.3573 10.4686C11.4643 10.5556 11.4808 10.7131 11.3935 10.8204C11.2833 10.9559 11.1665 11.0861 11.0463 11.2074C10.9973 11.2566 10.9328 11.2814 10.8688 11.2814ZM4.31425 10.9294C4.242 10.9294 4.17025 10.8981 4.12075 10.8381C4.01225 10.7056 3.908 10.5656 3.81125 10.4219C3.734 10.3074 3.76425 10.1519 3.87875 10.0746C3.993 9.99739 4.1485 10.0274 4.22575 10.1421C4.314 10.2731 4.40875 10.4006 4.5075 10.5209C4.595 10.6276 4.5795 10.7851 4.47275 10.8729C4.4265 10.9109 4.37 10.9294 4.31425 10.9294ZM11.9678 9.64514C11.9343 9.64514 11.9005 9.63839 11.868 9.62439C11.7413 9.56914 11.6835 9.42189 11.7385 9.29514C11.8013 9.15164 11.8585 9.00264 11.9088 8.85289C11.9528 8.72239 12.0945 8.65164 12.2255 8.69564C12.3563 8.73989 12.4268 8.88139 12.3828 9.01239C12.3278 9.17564 12.2653 9.33814 12.197 9.49489C12.1558 9.58889 12.0638 9.64514 11.9678 9.64514ZM3.36125 9.20339C3.25725 9.20339 3.16 9.13764 3.1245 9.03389C3.06925 8.87189 3.02025 8.70514 2.97875 8.53814C2.94525 8.40414 3.02675 8.26864 3.16075 8.23539C3.29425 8.20139 3.4305 8.28339 3.46375 8.41739C3.502 8.57064 3.547 8.72389 3.59775 8.87239C3.64225 9.00314 3.5725 9.14514 3.442 9.18964C3.4155 9.19889 3.388 9.20339 3.36125 9.20339ZM12.44 7.72914C12.4335 7.72914 12.427 7.72889 12.4205 7.72839C12.2828 7.71764 12.18 7.59739 12.1905 7.45964C12.2023 7.30814 12.2083 7.15339 12.2083 7.00014C12.2083 6.86214 12.3203 6.74214 12.4583 6.74214C12.5963 6.74214 12.7083 6.84589 12.7083 6.98389V7.00014C12.7083 7.16639 12.7018 7.33389 12.689 7.49839C12.679 7.62939 12.5693 7.72914 12.44 7.72914ZM3.0415 7.25289C2.9035 7.25289 2.7915 7.14364 2.7915 7.00564V7.00014C2.7915 6.82964 2.79825 6.65814 2.8115 6.49089C2.8225 6.35339 2.94225 6.25139 3.0805 6.26139C3.21825 6.27239 3.321 6.39289 3.31 6.53039C3.29775 6.68489 3.2915 6.84289 3.2915 7.00014C3.2915 7.13814 3.1795 7.25289 3.0415 7.25289ZM12.2755 5.76214C12.1638 5.76214 12.062 5.68664 12.0335 5.57339C11.9948 5.41964 11.9495 5.26664 11.8985 5.11814C11.8538 4.98764 11.9235 4.84539 12.054 4.80064C12.1848 4.75539 12.327 4.82539 12.3715 4.95614C12.427 5.11764 12.4763 5.28414 12.5183 5.45089C12.552 5.58489 12.4708 5.72064 12.337 5.75439C12.3168 5.75989 12.2963 5.76214 12.2755 5.76214ZM3.358 5.30789C3.33125 5.30789 3.30425 5.30339 3.2775 5.29439C3.14675 5.25014 3.07675 5.10814 3.121 4.97739C3.17625 4.81489 3.239 4.65264 3.30775 4.49539C3.36325 4.36864 3.51025 4.31139 3.637 4.36639C3.7635 4.42164 3.82125 4.56914 3.766 4.69564C3.70275 4.83989 3.64525 4.98889 3.59475 5.13789C3.559 5.24214 3.46225 5.30789 3.358 5.30789ZM11.4755 3.95964C11.3953 3.95964 11.3168 3.92114 11.2683 3.84964C11.1798 3.71914 11.0848 3.59189 10.9858 3.47164C10.898 3.36514 10.9133 3.20739 11.0198 3.11964C11.1263 3.03189 11.284 3.04714 11.3718 3.15364C11.4805 3.28589 11.585 3.42564 11.6823 3.56939C11.7598 3.68364 11.7298 3.83914 11.6155 3.91664C11.5725 3.94564 11.524 3.95964 11.4755 3.95964ZM4.307 3.57939C4.2515 3.57939 4.1955 3.56089 4.149 3.52289C4.042 3.43564 4.02625 3.27814 4.11375 3.17114C4.224 3.03614 4.341 2.90614 4.4615 2.78489C4.559 2.68739 4.71725 2.68664 4.815 2.78389C4.913 2.88139 4.9135 3.03939 4.81625 3.13739C4.70725 3.24714 4.601 3.36489 4.50075 3.48764C4.45175 3.54814 4.37975 3.57939 4.307 3.57939ZM10.0775 2.57189C10.0308 2.57189 9.9835 2.55889 9.9415 2.53139C9.81075 2.44614 9.67425 2.36764 9.53601 2.29789C9.413 2.23564 9.3635 2.08539 9.42575 1.96214C9.488 1.83939 9.638 1.78914 9.76151 1.85164C9.91601 1.92939 10.0683 2.01714 10.2143 2.11239C10.33 2.18789 10.3628 2.34289 10.2873 2.45839C10.2393 2.53214 10.1595 2.57189 10.0775 2.57189ZM5.83225 2.33439C5.74125 2.33439 5.6535 2.28464 5.60925 2.19789C5.5465 2.07489 5.5955 1.92439 5.7185 1.86164C5.87425 1.78239 6.03525 1.71114 6.1975 1.65064C6.3265 1.60214 6.47075 1.66764 6.51925 1.79714C6.5675 1.92639 6.502 2.07039 6.3725 2.11889C6.228 2.17289 6.08425 2.23614 5.94525 2.30714C5.90925 2.32564 5.87025 2.33439 5.83225 2.33439ZM8.23375 1.89714C8.224 1.89714 8.21425 1.89664 8.2045 1.89539C8.054 1.87789 7.901 1.86914 7.74975 1.86914C7.61175 1.86914 7.4945 1.75714 7.4945 1.61914C7.4945 1.48114 7.60125 1.36914 7.73925 1.36914H7.74975C7.92025 1.36914 8.09275 1.37914 8.26225 1.39889C8.39925 1.41464 8.49775 1.53864 8.48175 1.67589C8.46725 1.80339 8.35875 1.89714 8.23375 1.89714Z" fill="#F4BF1A"/>
<path d="M1.6245 7.25H0.125C0.13 7.41825 0.1395 7.585 0.15475 7.75H1.6555C1.64 7.585 1.62975 7.41825 1.6245 7.25Z" fill="#DCA815"/>
<path d="M1.68172 6H0.182719C0.161969 6.16475 0.146969 6.33175 0.136719 6.5H1.63647C1.64697 6.33175 1.66097 6.16475 1.68172 6Z" fill="#DCA815"/>
<path d="M1.76197 8.5H0.261719C0.294219 8.669 0.331719 8.83575 0.374469 9H1.87422C1.83172 8.83575 1.79447 8.669 1.76197 8.5Z" fill="#DCA815"/>
<path d="M2.1116 9.75H0.610596C0.674346 9.9205 0.744846 10.0867 0.819846 10.25H2.3201C2.2451 10.087 2.17535 9.92025 2.1116 9.75Z" fill="#DCA815"/>
<path d="M1.943 4.74951H0.44475C0.396 4.91376 0.3505 5.08001 0.3125 5.24951H1.81425C1.85225 5.08051 1.8945 4.91326 1.943 4.74951Z" fill="#DCA815"/>
<path d="M2.44097 3.5H0.940967C0.858467 3.66275 0.780717 3.82925 0.709717 4H2.21072C2.28172 3.8295 2.35847 3.66275 2.44097 3.5Z" fill="#DCA815"/>
<path d="M3.4612 2H1.95945C1.8172 2.159 1.68196 2.32575 1.55396 2.5H3.0552C3.18345 2.32575 3.31895 2.159 3.4612 2Z" fill="#DCA815"/>
<path d="M4.98993 0.75H3.48669C3.23119 0.8975 2.98619 1.0645 2.75269 1.25H4.25494C4.48869 1.0645 4.73418 0.8975 4.98993 0.75Z" fill="#DCA815"/>
<path d="M2.87966 11.25H1.37891C1.49491 11.4233 1.61741 11.59 1.74691 11.75H3.24866C3.11916 11.59 2.99591 11.4233 2.87966 11.25Z" fill="#DCA815"/>
<path d="M2.45801 12.5C2.65876 12.6807 2.86901 12.8485 3.08901 13H4.59251C4.37151 12.8483 4.15901 12.6815 3.95751 12.5H2.45801Z" fill="#DCA815"/>
</svg>
